<svg xmlns="http://www.w3.org/2000/svg" width="487" height="385" fill="none"><path fill="#1A1A1A" fill-rule="evenodd" d="M440.487 337.944c61.788-61.804 61.788-163.493 0-225.296L327.869 0l-87.064 87.087c-23.896-14.377-51.792-22.668-81.476-22.664C71.937 64.434.032 136.339.021 223.731L0 383.019l159.287-.021c30.24-.004 58.626-8.616 82.82-23.499 61.516 39.134 144.891 31.949 198.38-21.555Zm-225.236 0a157.476 157.476 0 0 0 26.856 21.555c45.726-28.129 76.481-78.657 76.488-135.809.008-57.708-31.334-108.655-77.79-136.603l-25.554 25.561c-61.788 61.803-61.788 163.492 0 225.296Z" clip-rule="evenodd"/></svg>